<svg xmlns="http://www.w3.org/2000/svg" version="1.1" xmlns:xlink="http://www.w3.org/1999/xlink" xmlns:svgjs="http://svgjs.dev/svgjs" viewBox="0 0 11.149862607499465 12.135783263859794"><g transform="matrix(1,0,0,1,0.9691911914450451,9.19656707241475)"><g><path d=" M 1.1355 0.6000000000000001 L 0.8385 0.6000000000000001 L 0.8385 0.6615 L 1.0065 0.6615 L 1.0065 0.933 Q 0.9390000000000001 0.9765 0.8685 0.9975 Q 0.798 1.0185 0.708 1.0185 Q 0.5895 1.0185 0.501 0.9825 Q 0.41250000000000003 0.9465000000000001 0.354 0.88275 Q 0.2955 0.8190000000000001 0.26625 0.7312500000000001 Q 0.23700000000000002 0.6435000000000001 0.23700000000000002 0.5385000000000001 Q 0.23700000000000002 0.43500000000000005 0.26475 0.3480000000000001 Q 0.2925 0.261 0.34800000000000003 0.19800000000000006 Q 0.4035 0.135 0.48375 0.10050000000000003 Q 0.5640000000000001 0.06600000000000006 0.6705 0.06600000000000006 Q 0.741 0.06600000000000006 0.8025 0.08100000000000007 Q 0.864 0.09600000000000009 0.912 0.12 Q 0.96 0.14400000000000002 0.99075 0.17475000000000007 Q 1.0215 0.20550000000000002 1.0305 0.237 L 1.1385 0.237 Q 1.125 0.20400000000000007 1.09275 0.16275000000000006 Q 1.0605 0.12150000000000005 1.0050000000000001 0.08550000000000002 Q 0.9495 0.0495000000000001 0.86775 0.02475000000000005 Q 0.786 0 0.675 0 Q 0.5475 0 0.44025000000000003 0.03600000000000003 Q 0.333 0.07200000000000006 0.255 0.13950000000000007 Q 0.177 0.20700000000000007 0.1335 0.30525 Q 0.09 0.4035000000000001 0.09 0.528 Q 0.09 0.6345000000000001 0.12375 0.7342500000000001 Q 0.1575 0.8340000000000001 0.22725 0.9127500000000001 Q 0.297 0.9915 0.405 1.03875 Q 0.513 1.086 0.663 1.086 Q 0.7755 1.086 0.8625 1.06125 Q 0.9495 1.0365 1.0065 1.0065 L 1.0065 1.068 L 1.1355 1.068 L 1.1355 0.6000000000000001 M 1.98752490234375 0.7590000000000001 L 2.1315249023437497 1.068 L 2.27702490234375 1.068 L 1.78802490234375 0.018000000000000016 L 1.7130249023437498 0.018000000000000016 L 1.2690249023437499 1.068 L 1.33802490234375 1.068 L 1.47002490234375 0.7590000000000001 L 1.98752490234375 0.7590000000000001 M 1.95602490234375 0.6915 L 1.49852490234375 0.6915 L 1.7145249023437499 0.18600000000000005 L 1.7205249023437499 0.18600000000000005 L 1.95602490234375 0.6915 M 2.602516845703125 0.018000000000000016 L 2.500516845703125 0.018000000000000016 L 2.500516845703125 1.068 L 2.566516845703125 1.068 L 2.566516845703125 0.21150000000000002 L 2.5725168457031247 0.21150000000000002 L 3.036016845703125 1.086 L 3.063016845703125 1.086 L 3.537016845703125 0.21750000000000003 L 3.543016845703125 0.21750000000000003 L 3.543016845703125 1.068 L 3.679516845703125 1.068 L 3.679516845703125 0.018000000000000016 L 3.576016845703125 0.018000000000000016 L 3.0900168457031247 0.9195000000000001 L 3.084016845703125 0.9195000000000001 L 2.602516845703125 0.018000000000000016 M 4.0380183105468745 0.018000000000000016 L 4.0380183105468745 1.068 L 4.7160183105468745 1.068 L 4.7160183105468745 0.9855 L 4.174518310546874 0.9855 L 4.174518310546874 0.546 L 4.639518310546875 0.546 L 4.639518310546875 0.4770000000000001 L 4.174518310546874 0.4770000000000001 L 4.174518310546874 0.10050000000000003 L 4.7160183105468745 0.10050000000000003 L 4.7160183105468745 0.018000000000000016 L 4.0380183105468745 0.018000000000000016 M 5.33846630859375 0.8025 Q 5.34146630859375 0.867 5.3722163085937495 0.9195000000000001 Q 5.40296630859375 0.9720000000000001 5.45621630859375 1.00875 Q 5.509466308593749 1.0455 5.5814663085937495 1.06575 Q 5.6534663085937495 1.086 5.73896630859375 1.086 Q 5.82596630859375 1.086 5.89571630859375 1.0650000000000002 Q 5.96546630859375 1.044 6.01496630859375 1.0050000000000001 Q 6.06446630859375 0.9660000000000001 6.09146630859375 0.9105000000000001 Q 6.118466308593749 0.8550000000000001 6.118466308593749 0.7875000000000001 Q 6.118466308593749 0.6945000000000001 6.071966308593749 0.6352500000000001 Q 6.025466308593749 0.5760000000000001 5.9557163085937495 0.53625 Q 5.8859663085937495 0.49650000000000005 5.80421630859375 0.46950000000000003 Q 5.7224663085937495 0.4425 5.6527163085937495 0.4125000000000001 Q 5.5829663085937495 0.38250000000000006 5.5364663085937496 0.3435 Q 5.48996630859375 0.3045 5.48996630859375 0.24 Q 5.48996630859375 0.20400000000000007 5.505716308593749 0.1725 Q 5.52146630859375 0.14100000000000001 5.552216308593749 0.11775000000000002 Q 5.5829663085937495 0.09450000000000003 5.6279663085937495 0.08025000000000004 Q 5.672966308593749 0.06600000000000006 5.73146630859375 0.06600000000000006 Q 5.82896630859375 0.06600000000000006 5.89721630859375 0.10725000000000007 Q 5.96546630859375 0.14850000000000008 5.977466308593749 0.237 L 6.07946630859375 0.237 Q 6.070466308593749 0.1815 6.03896630859375 0.1372500000000001 Q 6.00746630859375 0.09300000000000008 5.95946630859375 0.06225000000000014 Q 5.9114663085937496 0.031500000000000083 5.85071630859375 0.01574999999999993 Q 5.789966308593749 0 5.7239663085937496 0 Q 5.65496630859375 0 5.59271630859375 0.018000000000000016 Q 5.530466308593749 0.03600000000000003 5.483216308593749 0.07050000000000001 Q 5.435966308593749 0.1050000000000001 5.40821630859375 0.15750000000000008 Q 5.38046630859375 0.21000000000000008 5.38046630859375 0.2775000000000001 Q 5.38046630859375 0.366 5.42546630859375 0.42000000000000004 Q 5.47046630859375 0.4740000000000001 5.53871630859375 0.51 Q 5.60696630859375 0.546 5.68646630859375 0.5715000000000001 Q 5.765966308593749 0.597 5.834216308593749 0.6292500000000001 Q 5.90246630859375 0.6615 5.94746630859375 0.7080000000000001 Q 5.99246630859375 0.7545000000000001 5.99246630859375 0.8325 Q 5.99246630859375 0.93 5.92121630859375 0.9750000000000001 Q 5.84996630859375 1.02 5.73146630859375 1.02 Q 5.63696630859375 1.02 5.579966308593749 0.9952500000000001 Q 5.52296630859375 0.9705 5.49296630859375 0.936 Q 5.462966308593749 0.9015000000000001 5.45246630859375 0.86475 Q 5.4419663085937495 0.8280000000000001 5.4404663085937495 0.8025 L 5.33846630859375 0.8025 M 6.78746630859375 1.068 L 6.78746630859375 0.10050000000000003 L 7.18946630859375 0.10050000000000003 L 7.18946630859375 0.018000000000000016 L 6.24896630859375 0.018000000000000016 L 6.24896630859375 0.10050000000000003 L 6.65096630859375 0.10050000000000003 L 6.65096630859375 1.068 L 6.78746630859375 1.068 M 7.8014619140625 0.7590000000000001 L 7.945461914062499 1.068 L 8.0909619140625 1.068 L 7.6019619140625 0.018000000000000016 L 7.5269619140624995 0.018000000000000016 L 7.0829619140624995 1.068 L 7.1519619140624995 1.068 L 7.2839619140625 0.7590000000000001 L 7.8014619140625 0.7590000000000001 M 7.7699619140625 0.6915 L 7.312461914062499 0.6915 L 7.5284619140624995 0.18600000000000005 L 7.5344619140625 0.18600000000000005 L 7.7699619140625 0.6915 M 8.314453857421874 0.018000000000000016 L 8.314453857421874 1.068 L 8.450953857421874 1.068 L 8.450953857421874 0.6045 L 8.516953857421875 0.6045 Q 8.558953857421875 0.6045 8.586703857421874 0.6120000000000001 Q 8.614453857421875 0.6195 8.636953857421874 0.6375000000000001 Q 8.659453857421875 0.6555 8.678953857421874 0.684 Q 8.698453857421875 0.7125000000000001 8.725453857421874 0.7545000000000001 L 8.843953857421875 0.93 Q 8.866453857421874 0.9645 8.888203857421875 0.9930000000000001 Q 8.909953857421874 1.0215 8.935453857421875 1.04175 Q 8.960953857421874 1.062 8.993203857421875 1.074 Q 9.025453857421875 1.086 9.070453857421874 1.086 Q 9.103453857421874 1.086 9.124453857421875 1.083 Q 9.145453857421874 1.08 9.166453857421875 1.068 L 9.166453857421875 1.0125 Q 9.158953857421874 1.014 9.151453857421874 1.01475 Q 9.143953857421874 1.0155 9.136453857421875 1.0155 Q 9.104953857421874 1.0155 9.080953857421875 1.0065 Q 9.056953857421874 0.9975 9.035953857421875 0.9802500000000001 Q 9.014953857421874 0.9630000000000001 8.995453857421875 0.93825 Q 8.975953857421874 0.9135000000000001 8.954953857421874 0.8820000000000001 Q 8.891953857421875 0.7905 8.857453857421875 0.7357500000000001 Q 8.822953857421874 0.681 8.802703857421875 0.651 Q 8.782453857421874 0.621 8.769703857421874 0.6075 Q 8.756953857421875 0.5940000000000001 8.738953857421874 0.5850000000000001 L 8.723953857421874 0.5775000000000001 L 8.723953857421874 0.5715000000000001 Q 8.795953857421875 0.5670000000000001 8.847703857421875 0.54 Q 8.899453857421875 0.513 8.932453857421875 0.47250000000000003 Q 8.965453857421874 0.43200000000000005 8.980453857421875 0.38475000000000004 Q 8.995453857421875 0.3375 8.995453857421875 0.2925000000000001 Q 8.995453857421875 0.252 8.979703857421875 0.20400000000000007 Q 8.963953857421874 0.15600000000000003 8.925703857421874 0.11475000000000002 Q 8.887453857421875 0.07350000000000001 8.821453857421874 0.04574999999999996 Q 8.755453857421875 0.018000000000000016 8.654953857421875 0.018000000000000016 L 8.314453857421874 0.018000000000000016 M 8.450953857421874 0.08400000000000007 L 8.602453857421875 0.08400000000000007 Q 8.659453857421875 0.08400000000000007 8.705203857421875 0.10050000000000003 Q 8.750953857421875 0.11699999999999999 8.783953857421874 0.14625 Q 8.816953857421874 0.1755 8.834203857421874 0.21600000000000008 Q 8.851453857421875 0.25650000000000006 8.851453857421875 0.3045 Q 8.851453857421875 0.3450000000000001 8.835703857421874 0.3862500000000001 Q 8.819953857421874 0.4275000000000001 8.788453857421874 0.46125000000000005 Q 8.756953857421875 0.495 8.711203857421875 0.516 Q 8.665453857421875 0.537 8.605453857421875 0.537 L 8.450953857421874 0.537 L 8.450953857421874 0.08400000000000007" fill="#5a5a5a" fill-rule="nonzero"></path></g><g><path d=" M 2.361015380859375 1.8365249999999993 L 2.1225153808593746 1.8365249999999993 L 2.0767653808593747 1.9610249999999994 L 2.021265380859375 1.9610249999999994 L 2.212515380859375 1.4435249999999993 L 2.271765380859375 1.4435249999999993 L 2.4622653808593746 1.9610249999999994 L 2.4067653808593747 1.9610249999999994 L 2.361015380859375 1.8365249999999993 M 2.3452653808593746 1.7930249999999994 L 2.2417653808593747 1.5095249999999993 L 2.138265380859375 1.7930249999999994 L 2.3452653808593746 1.7930249999999994 M 2.9414985351562497 1.9610249999999994 L 2.88899853515625 1.9610249999999994 L 2.5987485351562496 1.5200249999999993 L 2.5987485351562496 1.9610249999999994 L 2.54624853515625 1.9610249999999994 L 2.54624853515625 1.4367749999999995 L 2.5987485351562496 1.4367749999999995 L 2.88899853515625 1.8770249999999993 L 2.88899853515625 1.4367749999999995 L 2.9414985351562497 1.4367749999999995 L 2.9414985351562497 1.9610249999999994 M 3.3652291259765623 1.4682749999999993 Q 3.4274791259765625 1.4997749999999994 3.4604791259765624 1.5590249999999992 Q 3.4934791259765623 1.6182749999999992 3.4934791259765623 1.7000249999999992 Q 3.4934791259765623 1.7810249999999994 3.4604791259765624 1.8398999999999994 Q 3.4274791259765625 1.8987749999999994 3.3652291259765623 1.9298999999999993 Q 3.302979125976562 1.9610249999999994 3.2159791259765624 1.9610249999999994 L 3.0607291259765623 1.9610249999999994 L 3.0607291259765623 1.4367749999999995 L 3.2159791259765624 1.4367749999999995 Q 3.302979125976562 1.4367749999999995 3.3652291259765623 1.4682749999999993 M 3.382854125976562 1.8601499999999993 Q 3.440229125976562 1.8027749999999994 3.440229125976562 1.7000249999999992 Q 3.440229125976562 1.5965249999999993 3.382854125976562 1.5383999999999993 Q 3.325479125976562 1.4802749999999993 3.2159791259765624 1.4802749999999993 L 3.113229125976562 1.4802749999999993 L 3.113229125976562 1.9175249999999993 L 3.2159791259765624 1.9175249999999993 Q 3.325479125976562 1.9175249999999993 3.382854125976562 1.8601499999999993 M 3.8692243652343747 1.9610249999999994 L 3.7394743652343747 1.7420249999999993 L 3.6427243652343746 1.7420249999999993 L 3.6427243652343746 1.9610249999999994 L 3.590224365234375 1.9610249999999994 L 3.590224365234375 1.4367749999999995 L 3.7477243652343746 1.4367749999999995 Q 3.835474365234375 1.4367749999999995 3.8808493652343747 1.4787749999999993 Q 3.9262243652343747 1.5207749999999993 3.9262243652343747 1.5890249999999995 Q 3.9262243652343747 1.6460249999999994 3.8935993652343748 1.6861499999999994 Q 3.860974365234375 1.7262749999999993 3.7972243652343747 1.7382749999999993 L 3.932224365234375 1.9610249999999994 L 3.8692243652343747 1.9610249999999994 M 3.6427243652343746 1.6992749999999994 L 3.7484743652343746 1.6992749999999994 Q 3.8099743652343747 1.6992749999999994 3.841099365234375 1.6692749999999994 Q 3.872224365234375 1.6392749999999994 3.872224365234375 1.5890249999999995 Q 3.872224365234375 1.5372749999999993 3.8422243652343746 1.5091499999999993 Q 3.812224365234375 1.4810249999999994 3.7477243652343746 1.4810249999999994 L 3.6427243652343746 1.4810249999999994 L 3.6427243652343746 1.6992749999999994 M 4.133955688476562 1.9321499999999994 Q 4.074705688476563 1.8980249999999994 4.040580688476562 1.8368999999999993 Q 4.006455688476562 1.7757749999999994 4.006455688476562 1.6985249999999994 Q 4.006455688476562 1.6212749999999994 4.040580688476562 1.5601499999999993 Q 4.074705688476563 1.4990249999999994 4.133955688476562 1.4648999999999994 Q 4.193205688476562 1.4307749999999992 4.265955688476562 1.4307749999999992 Q 4.339455688476562 1.4307749999999992 4.3987056884765625 1.4648999999999994 Q 4.457955688476562 1.4990249999999994 4.4917056884765625 1.5601499999999993 Q 4.525455688476562 1.6212749999999994 4.525455688476562 1.6985249999999994 Q 4.525455688476562 1.7757749999999994 4.4917056884765625 1.8368999999999993 Q 4.457955688476562 1.8980249999999994 4.3987056884765625 1.9321499999999994 Q 4.339455688476562 1.9662749999999993 4.265955688476562 1.9662749999999993 Q 4.193205688476562 1.9662749999999993 4.133955688476562 1.9321499999999994 M 4.370955688476562 1.8935249999999995 Q 4.417455688476562 1.8665249999999993 4.4444556884765625 1.8158999999999994 Q 4.471455688476563 1.7652749999999993 4.471455688476563 1.6985249999999994 Q 4.471455688476563 1.6317749999999993 4.4444556884765625 1.5815249999999994 Q 4.417455688476562 1.5312749999999993 4.370955688476562 1.5042749999999994 Q 4.324455688476562 1.4772749999999992 4.265955688476562 1.4772749999999992 Q 4.207455688476562 1.4772749999999992 4.160955688476562 1.5042749999999994 Q 4.114455688476562 1.5312749999999993 4.087455688476562 1.5815249999999994 Q 4.060455688476562 1.6317749999999993 4.060455688476562 1.6985249999999994 Q 4.060455688476562 1.7652749999999993 4.087455688476562 1.8158999999999994 Q 4.114455688476562 1.8665249999999993 4.160955688476562 1.8935249999999995 Q 4.207455688476562 1.9205249999999994 4.265955688476562 1.9205249999999994 Q 4.324455688476562 1.9205249999999994 4.370955688476562 1.8935249999999995 M 4.673974365234375 1.4367749999999995 L 4.673974365234375 1.9610249999999994 L 4.621474365234374 1.9610249999999994 L 4.621474365234374 1.4367749999999995 L 4.673974365234375 1.4367749999999995 M 5.097727294921874 1.4682749999999993 Q 5.159977294921875 1.4997749999999994 5.192977294921874 1.5590249999999992 Q 5.225977294921875 1.6182749999999992 5.225977294921875 1.7000249999999992 Q 5.225977294921875 1.7810249999999994 5.192977294921874 1.8398999999999994 Q 5.159977294921875 1.8987749999999994 5.097727294921874 1.9298999999999993 Q 5.035477294921875 1.9610249999999994 4.948477294921875 1.9610249999999994 L 4.793227294921874 1.9610249999999994 L 4.793227294921874 1.4367749999999995 L 4.948477294921875 1.4367749999999995 Q 5.035477294921875 1.4367749999999995 5.097727294921874 1.4682749999999993 M 5.115352294921875 1.8601499999999993 Q 5.1727272949218746 1.8027749999999994 5.1727272949218746 1.7000249999999992 Q 5.1727272949218746 1.5965249999999993 5.115352294921875 1.5383999999999993 Q 5.057977294921875 1.4802749999999993 4.948477294921875 1.4802749999999993 L 4.845727294921875 1.4802749999999993 L 4.845727294921875 1.9175249999999993 L 4.948477294921875 1.9175249999999993 Q 5.057977294921875 1.9175249999999993 5.115352294921875 1.8601499999999993 M 5.927212646484374 1.9610249999999994 L 5.855962646484374 1.8882749999999993 Q 5.817712646484375 1.9302749999999993 5.774212646484375 1.9501499999999994 Q 5.730712646484375 1.9700249999999992 5.675962646484375 1.9700249999999992 Q 5.623462646484374 1.9700249999999992 5.582962646484375 1.9501499999999994 Q 5.542462646484375 1.9302749999999993 5.519962646484375 1.8942749999999993 Q 5.497462646484375 1.8582749999999995 5.497462646484375 1.8110249999999994 Q 5.497462646484375 1.7555249999999993 5.528962646484374 1.7142749999999993 Q 5.560462646484375 1.6730249999999993 5.621212646484374 1.6497749999999993 Q 5.594962646484375 1.6205249999999993 5.582962646484375 1.5953999999999993 Q 5.570962646484375 1.5702749999999994 5.570962646484375 1.5410249999999994 Q 5.570962646484375 1.4907749999999993 5.606962646484375 1.4596499999999994 Q 5.642962646484375 1.4285249999999994 5.702962646484375 1.4285249999999994 Q 5.759212646484375 1.4285249999999994 5.794462646484375 1.4607749999999995 Q 5.829712646484375 1.4930249999999994 5.827462646484375 1.5447749999999993 L 5.774962646484375 1.5447749999999993 Q 5.775712646484375 1.5110249999999994 5.754337646484375 1.4915249999999993 Q 5.732962646484375 1.4720249999999995 5.700712646484375 1.4720249999999995 Q 5.666212646484375 1.4720249999999995 5.644837646484374 1.4911499999999993 Q 5.623462646484374 1.5102749999999994 5.623462646484374 1.5402749999999994 Q 5.623462646484374 1.5642749999999994 5.636587646484375 1.5867749999999994 Q 5.6497126464843745 1.6092749999999993 5.678212646484375 1.6400249999999994 L 5.850712646484375 1.8147749999999994 Q 5.861212646484375 1.8005249999999993 5.879212646484374 1.7697749999999994 L 5.927212646484374 1.6895249999999993 L 5.983462646484375 1.6895249999999993 L 5.926462646484374 1.7877749999999994 Q 5.9062126464843745 1.8230249999999995 5.885962646484375 1.8507749999999994 L 5.995462646484375 1.9610249999999994 L 5.927212646484374 1.9610249999999994 M 5.755087646484375 1.9070249999999993 Q 5.7899626464843745 1.8897749999999993 5.821462646484375 1.8530249999999993 L 5.654212646484375 1.6835249999999993 Q 5.549962646484375 1.7217749999999994 5.549962646484375 1.8095249999999994 Q 5.549962646484375 1.8425249999999993 5.566087646484375 1.8683999999999994 Q 5.582212646484375 1.8942749999999993 5.610712646484375 1.9092749999999994 Q 5.639212646484375 1.9242749999999993 5.675962646484375 1.9242749999999993 Q 5.7202126464843746 1.9242749999999993 5.755087646484375 1.9070249999999993 M 6.563948364257812 1.6962749999999993 Q 6.519698364257812 1.7375249999999993 6.4311983642578125 1.7375249999999993 L 6.325448364257812 1.7375249999999993 L 6.325448364257812 1.9610249999999994 L 6.272948364257812 1.9610249999999994 L 6.272948364257812 1.4367749999999995 L 6.4311983642578125 1.4367749999999995 Q 6.518948364257812 1.4367749999999995 6.563573364257812 1.4780249999999993 Q 6.608198364257812 1.5192749999999993 6.608198364257812 1.5875249999999994 Q 6.608198364257812 1.6550249999999993 6.563948364257812 1.6962749999999993 M 6.554198364257812 1.5875249999999994 Q 6.554198364257812 1.5350249999999994 6.5249483642578125 1.5080249999999993 Q 6.495698364257812 1.4810249999999994 6.4311983642578125 1.4810249999999994 L 6.325448364257812 1.4810249999999994 L 6.325448364257812 1.6925249999999994 L 6.4311983642578125 1.6925249999999994 Q 6.554198364257812 1.6925249999999994 6.554198364257812 1.5875249999999994 M 6.7057177734375 1.5601499999999993 Q 6.7394677734375 1.4990249999999994 6.7979677734375 1.4648999999999994 Q 6.8564677734375 1.4307749999999992 6.9284677734375 1.4307749999999992 Q 7.0162177734375 1.4307749999999992 7.0788427734375 1.4723999999999993 Q 7.141467773437499 1.5140249999999993 7.1699677734375 1.5897749999999993 L 7.1084677734375 1.5897749999999993 Q 7.0859677734375 1.5365249999999993 7.0398427734375 1.5065249999999994 Q 6.9937177734375 1.4765249999999994 6.9284677734375 1.4765249999999994 Q 6.8707177734375 1.4765249999999994 6.8245927734375 1.5035249999999993 Q 6.7784677734375 1.5305249999999995 6.7522177734375 1.5811499999999994 Q 6.7259677734375 1.6317749999999993 6.7259677734375 1.6985249999999994 Q 6.7259677734375 1.7652749999999993 6.7522177734375 1.8155249999999994 Q 6.7784677734375 1.8657749999999993 6.8245927734375 1.8927749999999994 Q 6.8707177734375 1.9197749999999993 6.9284677734375 1.9197749999999993 Q 6.9937177734375 1.9197749999999993 7.0398427734375 1.8901499999999993 Q 7.0859677734375 1.8605249999999993 7.1084677734375 1.8080249999999993 L 7.1699677734375 1.8080249999999993 Q 7.141467773437499 1.8830249999999993 7.0784677734375 1.9242749999999993 Q 7.0154677734375 1.9655249999999993 6.9284677734375 1.9655249999999993 Q 6.8564677734375 1.9655249999999993 6.7979677734375 1.9313999999999993 Q 6.7394677734375 1.8972749999999994 6.7057177734375 1.8365249999999993 Q 6.671967773437499 1.7757749999999994 6.671967773437499 1.6985249999999994 Q 6.671967773437499 1.6212749999999994 6.7057177734375 1.5601499999999993" fill="#ff0000" fill-rule="nonzero"></path></g><g clip-path="url(#SvgjsClipPath1001)"><g clip-path="url(#SvgjsClipPath1000f8a2d3b6-9bef-4de2-bac6-0176cf03d8d9)"><path d=" M 8.060304038472928 -0.24923368147156655 C 8.355178857028065 -0.25254719427111905 8.593413495575282 -0.4907818328183309 8.596727008374828 -0.7856566513734613 L 8.596727008374828 -1.699874655791998 L 3.327520806881299 -1.699874655791998 C 2.633477499875324 -1.7040582735300331 2.0718767638783016 -2.2656590095270612 2.0676931461402663 -2.9597023165330416 L 2.0676931461402663 -4.601156604432848 L 6.418849750573109 -4.601156604432848 L 6.418849750573109 -5.516140927379807 C 6.416351305244033 -5.811358070195542 6.177643923486937 -6.050065451952649 5.882426780671209 -6.052563897281713 L 0.617052171819835 -6.052563897281713 L 0.617052171819835 -2.961234953589897 C 0.621680127565597 -1.4662056196008546 1.8324914728924886 -0.25539427427405936 3.327520806881418 -0.2507663185284219 Z" fill="#5a5a5a" transform="matrix(1,0,0,1,0,0)" fill-rule="evenodd"></path></g><g clip-path="url(#SvgjsClipPath1000f8a2d3b6-9bef-4de2-bac6-0176cf03d8d9)"><path d=" M 1.151942504664869 -8.223544288327549 C 0.8570676861097273 -8.220230775528009 0.6188330475625093 -7.981996136980796 0.6155195347629625 -7.687121318425654 L 0.6155195347629625 -6.767539084308096 L 5.883193099199636 -6.767539084308096 C 6.577360342523229 -6.762937762750837 7.138841553663504 -6.201115018027129 7.143020759940669 -5.5069451050386515 L 7.143020759940669 -3.8662571356672446 L 2.793396792564687 -3.8662571356672446 L 2.793396792564687 -2.950506494191864 C 2.7963038576130046 -2.6554608033959095 3.0347740716706384 -2.4169905893382753 3.3298197624665935 -2.414083524289958 L 8.59212909720424 -2.414083524289958 L 8.59212909720424 -5.516140927379807 C 8.5858318339832 -7.008782322078311 7.3773671309549895 -8.217247025106515 5.884725736256492 -8.223544288327538 Z" fill="#ff0000" transform="matrix(1,0,0,1,0,0)" fill-rule="evenodd"></path></g></g></g><defs><clipPath id="SvgjsClipPath1001"><path d=" M 0.617052171819835 -8.227375880969705 h 7.977375880969705 v 7.977375880969705 h -7.977375880969705 Z"></path></clipPath><clipPath id="SvgjsClipPath1000f8a2d3b6-9bef-4de2-bac6-0176cf03d8d9"><path d=" M 0.617052171819835 -8.227375880969705 L 8.594428052789539 -8.227375880969705 L 8.594428052789539 -0.25 L 0.617052171819835 -0.25 Z"></path></clipPath></defs></svg>