<svg xmlns="http://www.w3.org/2000/svg" version="1.1" xmlns:xlink="http://www.w3.org/1999/xlink" xmlns:svgjs="http://svgjs.dev/svgjs" viewBox="0 0 12.6479858815224 3.036505656913026"><g transform="matrix(1,0,0,1,2.946623014197948,0.5377403284565134)"><g><path d=" M 1.1355 0.6000000000000001 L 0.8385 0.6000000000000001 L 0.8385 0.6615 L 1.0065 0.6615 L 1.0065 0.933 Q 0.9390000000000001 0.9765 0.8685 0.9975 Q 0.798 1.0185 0.708 1.0185 Q 0.5895 1.0185 0.501 0.9825 Q 0.41250000000000003 0.9465000000000001 0.354 0.88275 Q 0.2955 0.8190000000000001 0.26625 0.7312500000000001 Q 0.23700000000000002 0.6435000000000001 0.23700000000000002 0.5385000000000001 Q 0.23700000000000002 0.43500000000000005 0.26475 0.3480000000000001 Q 0.2925 0.261 0.34800000000000003 0.19800000000000006 Q 0.4035 0.135 0.48375 0.10050000000000003 Q 0.5640000000000001 0.06600000000000006 0.6705 0.06600000000000006 Q 0.741 0.06600000000000006 0.8025 0.08100000000000007 Q 0.864 0.09600000000000009 0.912 0.12 Q 0.96 0.14400000000000002 0.99075 0.17475000000000007 Q 1.0215 0.20550000000000002 1.0305 0.237 L 1.1385 0.237 Q 1.125 0.20400000000000007 1.09275 0.16275000000000006 Q 1.0605 0.12150000000000005 1.0050000000000001 0.08550000000000002 Q 0.9495 0.0495000000000001 0.86775 0.02475000000000005 Q 0.786 0 0.675 0 Q 0.5475 0 0.44025000000000003 0.03600000000000003 Q 0.333 0.07200000000000006 0.255 0.13950000000000007 Q 0.177 0.20700000000000007 0.1335 0.30525 Q 0.09 0.4035000000000001 0.09 0.528 Q 0.09 0.6345000000000001 0.12375 0.7342500000000001 Q 0.1575 0.8340000000000001 0.22725 0.9127500000000001 Q 0.297 0.9915 0.405 1.03875 Q 0.513 1.086 0.663 1.086 Q 0.7755 1.086 0.8625 1.06125 Q 0.9495 1.0365 1.0065 1.0065 L 1.0065 1.068 L 1.1355 1.068 L 1.1355 0.6000000000000001 M 1.98752490234375 0.7590000000000001 L 2.1315249023437497 1.068 L 2.27702490234375 1.068 L 1.78802490234375 0.018000000000000016 L 1.7130249023437498 0.018000000000000016 L 1.2690249023437499 1.068 L 1.33802490234375 1.068 L 1.47002490234375 0.7590000000000001 L 1.98752490234375 0.7590000000000001 M 1.95602490234375 0.6915 L 1.49852490234375 0.6915 L 1.7145249023437499 0.18600000000000005 L 1.7205249023437499 0.18600000000000005 L 1.95602490234375 0.6915 M 2.602516845703125 0.018000000000000016 L 2.500516845703125 0.018000000000000016 L 2.500516845703125 1.068 L 2.566516845703125 1.068 L 2.566516845703125 0.21150000000000002 L 2.5725168457031247 0.21150000000000002 L 3.036016845703125 1.086 L 3.063016845703125 1.086 L 3.537016845703125 0.21750000000000003 L 3.543016845703125 0.21750000000000003 L 3.543016845703125 1.068 L 3.679516845703125 1.068 L 3.679516845703125 0.018000000000000016 L 3.576016845703125 0.018000000000000016 L 3.0900168457031247 0.9195000000000001 L 3.084016845703125 0.9195000000000001 L 2.602516845703125 0.018000000000000016 M 4.0380183105468745 0.018000000000000016 L 4.0380183105468745 1.068 L 4.7160183105468745 1.068 L 4.7160183105468745 0.9855 L 4.174518310546874 0.9855 L 4.174518310546874 0.546 L 4.639518310546875 0.546 L 4.639518310546875 0.4770000000000001 L 4.174518310546874 0.4770000000000001 L 4.174518310546874 0.10050000000000003 L 4.7160183105468745 0.10050000000000003 L 4.7160183105468745 0.018000000000000016 L 4.0380183105468745 0.018000000000000016 M 5.33846630859375 0.8025 Q 5.34146630859375 0.867 5.3722163085937495 0.9195000000000001 Q 5.40296630859375 0.9720000000000001 5.45621630859375 1.00875 Q 5.509466308593749 1.0455 5.5814663085937495 1.06575 Q 5.6534663085937495 1.086 5.73896630859375 1.086 Q 5.82596630859375 1.086 5.89571630859375 1.0650000000000002 Q 5.96546630859375 1.044 6.01496630859375 1.0050000000000001 Q 6.06446630859375 0.9660000000000001 6.09146630859375 0.9105000000000001 Q 6.118466308593749 0.8550000000000001 6.118466308593749 0.7875000000000001 Q 6.118466308593749 0.6945000000000001 6.071966308593749 0.6352500000000001 Q 6.025466308593749 0.5760000000000001 5.9557163085937495 0.53625 Q 5.8859663085937495 0.49650000000000005 5.80421630859375 0.46950000000000003 Q 5.7224663085937495 0.4425 5.6527163085937495 0.4125000000000001 Q 5.5829663085937495 0.38250000000000006 5.5364663085937496 0.3435 Q 5.48996630859375 0.3045 5.48996630859375 0.24 Q 5.48996630859375 0.20400000000000007 5.505716308593749 0.1725 Q 5.52146630859375 0.14100000000000001 5.552216308593749 0.11775000000000002 Q 5.5829663085937495 0.09450000000000003 5.6279663085937495 0.08025000000000004 Q 5.672966308593749 0.06600000000000006 5.73146630859375 0.06600000000000006 Q 5.82896630859375 0.06600000000000006 5.89721630859375 0.10725000000000007 Q 5.96546630859375 0.14850000000000008 5.977466308593749 0.237 L 6.07946630859375 0.237 Q 6.070466308593749 0.1815 6.03896630859375 0.1372500000000001 Q 6.00746630859375 0.09300000000000008 5.95946630859375 0.06225000000000014 Q 5.9114663085937496 0.031500000000000083 5.85071630859375 0.01574999999999993 Q 5.789966308593749 0 5.7239663085937496 0 Q 5.65496630859375 0 5.59271630859375 0.018000000000000016 Q 5.530466308593749 0.03600000000000003 5.483216308593749 0.07050000000000001 Q 5.435966308593749 0.1050000000000001 5.40821630859375 0.15750000000000008 Q 5.38046630859375 0.21000000000000008 5.38046630859375 0.2775000000000001 Q 5.38046630859375 0.366 5.42546630859375 0.42000000000000004 Q 5.47046630859375 0.4740000000000001 5.53871630859375 0.51 Q 5.60696630859375 0.546 5.68646630859375 0.5715000000000001 Q 5.765966308593749 0.597 5.834216308593749 0.6292500000000001 Q 5.90246630859375 0.6615 5.94746630859375 0.7080000000000001 Q 5.99246630859375 0.7545000000000001 5.99246630859375 0.8325 Q 5.99246630859375 0.93 5.92121630859375 0.9750000000000001 Q 5.84996630859375 1.02 5.73146630859375 1.02 Q 5.63696630859375 1.02 5.579966308593749 0.9952500000000001 Q 5.52296630859375 0.9705 5.49296630859375 0.936 Q 5.462966308593749 0.9015000000000001 5.45246630859375 0.86475 Q 5.4419663085937495 0.8280000000000001 5.4404663085937495 0.8025 L 5.33846630859375 0.8025 M 6.78746630859375 1.068 L 6.78746630859375 0.10050000000000003 L 7.18946630859375 0.10050000000000003 L 7.18946630859375 0.018000000000000016 L 6.24896630859375 0.018000000000000016 L 6.24896630859375 0.10050000000000003 L 6.65096630859375 0.10050000000000003 L 6.65096630859375 1.068 L 6.78746630859375 1.068 M 7.8014619140625 0.7590000000000001 L 7.945461914062499 1.068 L 8.0909619140625 1.068 L 7.6019619140625 0.018000000000000016 L 7.5269619140624995 0.018000000000000016 L 7.0829619140624995 1.068 L 7.1519619140624995 1.068 L 7.2839619140625 0.7590000000000001 L 7.8014619140625 0.7590000000000001 M 7.7699619140625 0.6915 L 7.312461914062499 0.6915 L 7.5284619140624995 0.18600000000000005 L 7.5344619140625 0.18600000000000005 L 7.7699619140625 0.6915 M 8.314453857421874 0.018000000000000016 L 8.314453857421874 1.068 L 8.450953857421874 1.068 L 8.450953857421874 0.6045 L 8.516953857421875 0.6045 Q 8.558953857421875 0.6045 8.586703857421874 0.6120000000000001 Q 8.614453857421875 0.6195 8.636953857421874 0.6375000000000001 Q 8.659453857421875 0.6555 8.678953857421874 0.684 Q 8.698453857421875 0.7125000000000001 8.725453857421874 0.7545000000000001 L 8.843953857421875 0.93 Q 8.866453857421874 0.9645 8.888203857421875 0.9930000000000001 Q 8.909953857421874 1.0215 8.935453857421875 1.04175 Q 8.960953857421874 1.062 8.993203857421875 1.074 Q 9.025453857421875 1.086 9.070453857421874 1.086 Q 9.103453857421874 1.086 9.124453857421875 1.083 Q 9.145453857421874 1.08 9.166453857421875 1.068 L 9.166453857421875 1.0125 Q 9.158953857421874 1.014 9.151453857421874 1.01475 Q 9.143953857421874 1.0155 9.136453857421875 1.0155 Q 9.104953857421874 1.0155 9.080953857421875 1.0065 Q 9.056953857421874 0.9975 9.035953857421875 0.9802500000000001 Q 9.014953857421874 0.9630000000000001 8.995453857421875 0.93825 Q 8.975953857421874 0.9135000000000001 8.954953857421874 0.8820000000000001 Q 8.891953857421875 0.7905 8.857453857421875 0.7357500000000001 Q 8.822953857421874 0.681 8.802703857421875 0.651 Q 8.782453857421874 0.621 8.769703857421874 0.6075 Q 8.756953857421875 0.5940000000000001 8.738953857421874 0.5850000000000001 L 8.723953857421874 0.5775000000000001 L 8.723953857421874 0.5715000000000001 Q 8.795953857421875 0.5670000000000001 8.847703857421875 0.54 Q 8.899453857421875 0.513 8.932453857421875 0.47250000000000003 Q 8.965453857421874 0.43200000000000005 8.980453857421875 0.38475000000000004 Q 8.995453857421875 0.3375 8.995453857421875 0.2925000000000001 Q 8.995453857421875 0.252 8.979703857421875 0.20400000000000007 Q 8.963953857421874 0.15600000000000003 8.925703857421874 0.11475000000000002 Q 8.887453857421875 0.07350000000000001 8.821453857421874 0.04574999999999996 Q 8.755453857421875 0.018000000000000016 8.654953857421875 0.018000000000000016 L 8.314453857421874 0.018000000000000016 M 8.450953857421874 0.08400000000000007 L 8.602453857421875 0.08400000000000007 Q 8.659453857421875 0.08400000000000007 8.705203857421875 0.10050000000000003 Q 8.750953857421875 0.11699999999999999 8.783953857421874 0.14625 Q 8.816953857421874 0.1755 8.834203857421874 0.21600000000000008 Q 8.851453857421875 0.25650000000000006 8.851453857421875 0.3045 Q 8.851453857421875 0.3450000000000001 8.835703857421874 0.3862500000000001 Q 8.819953857421874 0.4275000000000001 8.788453857421874 0.46125000000000005 Q 8.756953857421875 0.495 8.711203857421875 0.516 Q 8.665453857421875 0.537 8.605453857421875 0.537 L 8.450953857421874 0.537 L 8.450953857421874 0.08400000000000007" fill="#5a5a5a" fill-rule="nonzero"></path></g><g><path d=" M 0.36375 1.8365249999999993 L 0.12525 1.8365249999999993 L 0.0795 1.9610249999999994 L 0.024 1.9610249999999994 L 0.21525 1.4435249999999993 L 0.2745 1.4435249999999993 L 0.465 1.9610249999999994 L 0.40950000000000003 1.9610249999999994 L 0.36375 1.8365249999999993 M 0.34800000000000003 1.7930249999999994 L 0.2445 1.5095249999999993 L 0.14100000000000001 1.7930249999999994 L 0.34800000000000003 1.7930249999999994 M 0.9442331542968749 1.9610249999999994 L 0.8917331542968749 1.9610249999999994 L 0.601483154296875 1.5200249999999993 L 0.601483154296875 1.9610249999999994 L 0.548983154296875 1.9610249999999994 L 0.548983154296875 1.4367749999999995 L 0.601483154296875 1.4367749999999995 L 0.8917331542968749 1.8770249999999993 L 0.8917331542968749 1.4367749999999995 L 0.9442331542968749 1.4367749999999995 L 0.9442331542968749 1.9610249999999994 M 1.3679637451171875 1.4682749999999993 Q 1.4302137451171875 1.4997749999999994 1.4632137451171876 1.5590249999999992 Q 1.4962137451171875 1.6182749999999992 1.4962137451171875 1.7000249999999992 Q 1.4962137451171875 1.7810249999999994 1.4632137451171876 1.8398999999999994 Q 1.4302137451171875 1.8987749999999994 1.3679637451171875 1.9298999999999993 Q 1.3057137451171874 1.9610249999999994 1.2187137451171874 1.9610249999999994 L 1.0634637451171876 1.9610249999999994 L 1.0634637451171876 1.4367749999999995 L 1.2187137451171874 1.4367749999999995 Q 1.3057137451171874 1.4367749999999995 1.3679637451171875 1.4682749999999993 M 1.3855887451171875 1.8601499999999993 Q 1.4429637451171875 1.8027749999999994 1.4429637451171875 1.7000249999999992 Q 1.4429637451171875 1.5965249999999993 1.3855887451171875 1.5383999999999993 Q 1.3282137451171874 1.4802749999999993 1.2187137451171874 1.4802749999999993 L 1.1159637451171875 1.4802749999999993 L 1.1159637451171875 1.9175249999999993 L 1.2187137451171874 1.9175249999999993 Q 1.3282137451171874 1.9175249999999993 1.3855887451171875 1.8601499999999993 M 1.871958984375 1.9610249999999994 L 1.742208984375 1.7420249999999993 L 1.645458984375 1.7420249999999993 L 1.645458984375 1.9610249999999994 L 1.592958984375 1.9610249999999994 L 1.592958984375 1.4367749999999995 L 1.750458984375 1.4367749999999995 Q 1.838208984375 1.4367749999999995 1.883583984375 1.4787749999999993 Q 1.928958984375 1.5207749999999993 1.928958984375 1.5890249999999995 Q 1.928958984375 1.6460249999999994 1.896333984375 1.6861499999999994 Q 1.863708984375 1.7262749999999993 1.799958984375 1.7382749999999993 L 1.9349589843750001 1.9610249999999994 L 1.871958984375 1.9610249999999994 M 1.645458984375 1.6992749999999994 L 1.751208984375 1.6992749999999994 Q 1.812708984375 1.6992749999999994 1.843833984375 1.6692749999999994 Q 1.874958984375 1.6392749999999994 1.874958984375 1.5890249999999995 Q 1.874958984375 1.5372749999999993 1.844958984375 1.5091499999999993 Q 1.814958984375 1.4810249999999994 1.750458984375 1.4810249999999994 L 1.645458984375 1.4810249999999994 L 1.645458984375 1.6992749999999994 M 2.1366903076171875 1.9321499999999994 Q 2.0774403076171875 1.8980249999999994 2.0433153076171875 1.8368999999999993 Q 2.0091903076171875 1.7757749999999994 2.0091903076171875 1.6985249999999994 Q 2.0091903076171875 1.6212749999999994 2.0433153076171875 1.5601499999999993 Q 2.0774403076171875 1.4990249999999994 2.1366903076171875 1.4648999999999994 Q 2.1959403076171875 1.4307749999999992 2.2686903076171876 1.4307749999999992 Q 2.3421903076171873 1.4307749999999992 2.4014403076171877 1.4648999999999994 Q 2.4606903076171873 1.4990249999999994 2.4944403076171877 1.5601499999999993 Q 2.5281903076171877 1.6212749999999994 2.5281903076171877 1.6985249999999994 Q 2.5281903076171877 1.7757749999999994 2.4944403076171877 1.8368999999999993 Q 2.4606903076171873 1.8980249999999994 2.4014403076171877 1.9321499999999994 Q 2.3421903076171873 1.9662749999999993 2.2686903076171876 1.9662749999999993 Q 2.1959403076171875 1.9662749999999993 2.1366903076171875 1.9321499999999994 M 2.3736903076171876 1.8935249999999995 Q 2.4201903076171876 1.8665249999999993 2.4471903076171877 1.8158999999999994 Q 2.4741903076171874 1.7652749999999993 2.4741903076171874 1.6985249999999994 Q 2.4741903076171874 1.6317749999999993 2.4471903076171877 1.5815249999999994 Q 2.4201903076171876 1.5312749999999993 2.3736903076171876 1.5042749999999994 Q 2.3271903076171876 1.4772749999999992 2.2686903076171876 1.4772749999999992 Q 2.2101903076171876 1.4772749999999992 2.1636903076171876 1.5042749999999994 Q 2.1171903076171876 1.5312749999999993 2.0901903076171875 1.5815249999999994 Q 2.0631903076171874 1.6317749999999993 2.0631903076171874 1.6985249999999994 Q 2.0631903076171874 1.7652749999999993 2.0901903076171875 1.8158999999999994 Q 2.1171903076171876 1.8665249999999993 2.1636903076171876 1.8935249999999995 Q 2.2101903076171876 1.9205249999999994 2.2686903076171876 1.9205249999999994 Q 2.3271903076171876 1.9205249999999994 2.3736903076171876 1.8935249999999995 M 2.676708984375 1.4367749999999995 L 2.676708984375 1.9610249999999994 L 2.624208984375 1.9610249999999994 L 2.624208984375 1.4367749999999995 L 2.676708984375 1.4367749999999995 M 3.1004619140625 1.4682749999999993 Q 3.1627119140625 1.4997749999999994 3.1957119140625 1.5590249999999992 Q 3.2287119140625 1.6182749999999992 3.2287119140625 1.7000249999999992 Q 3.2287119140625 1.7810249999999994 3.1957119140625 1.8398999999999994 Q 3.1627119140625 1.8987749999999994 3.1004619140625 1.9298999999999993 Q 3.0382119140625 1.9610249999999994 2.9512119140625 1.9610249999999994 L 2.7959619140625 1.9610249999999994 L 2.7959619140625 1.4367749999999995 L 2.9512119140625 1.4367749999999995 Q 3.0382119140625 1.4367749999999995 3.1004619140625 1.4682749999999993 M 3.1180869140625 1.8601499999999993 Q 3.1754619140625 1.8027749999999994 3.1754619140625 1.7000249999999992 Q 3.1754619140625 1.5965249999999993 3.1180869140625 1.5383999999999993 Q 3.0607119140625 1.4802749999999993 2.9512119140625 1.4802749999999993 L 2.8484619140625 1.4802749999999993 L 2.8484619140625 1.9175249999999993 L 2.9512119140625 1.9175249999999993 Q 3.0607119140625 1.9175249999999993 3.1180869140625 1.8601499999999993 M 3.929947265625 1.9610249999999994 L 3.858697265625 1.8882749999999993 Q 3.820447265625 1.9302749999999993 3.776947265625 1.9501499999999994 Q 3.733447265625 1.9700249999999992 3.678697265625 1.9700249999999992 Q 3.626197265625 1.9700249999999992 3.585697265625 1.9501499999999994 Q 3.545197265625 1.9302749999999993 3.522697265625 1.8942749999999993 Q 3.500197265625 1.8582749999999995 3.500197265625 1.8110249999999994 Q 3.500197265625 1.7555249999999993 3.531697265625 1.7142749999999993 Q 3.563197265625 1.6730249999999993 3.623947265625 1.6497749999999993 Q 3.597697265625 1.6205249999999993 3.585697265625 1.5953999999999993 Q 3.573697265625 1.5702749999999994 3.573697265625 1.5410249999999994 Q 3.573697265625 1.4907749999999993 3.609697265625 1.4596499999999994 Q 3.645697265625 1.4285249999999994 3.705697265625 1.4285249999999994 Q 3.761947265625 1.4285249999999994 3.797197265625 1.4607749999999995 Q 3.832447265625 1.4930249999999994 3.830197265625 1.5447749999999993 L 3.777697265625 1.5447749999999993 Q 3.778447265625 1.5110249999999994 3.757072265625 1.4915249999999993 Q 3.735697265625 1.4720249999999995 3.703447265625 1.4720249999999995 Q 3.668947265625 1.4720249999999995 3.647572265625 1.4911499999999993 Q 3.626197265625 1.5102749999999994 3.626197265625 1.5402749999999994 Q 3.626197265625 1.5642749999999994 3.639322265625 1.5867749999999994 Q 3.6524472656249998 1.6092749999999993 3.680947265625 1.6400249999999994 L 3.853447265625 1.8147749999999994 Q 3.863947265625 1.8005249999999993 3.881947265625 1.7697749999999994 L 3.929947265625 1.6895249999999993 L 3.986197265625 1.6895249999999993 L 3.929197265625 1.7877749999999994 Q 3.908947265625 1.8230249999999995 3.888697265625 1.8507749999999994 L 3.998197265625 1.9610249999999994 L 3.929947265625 1.9610249999999994 M 3.757822265625 1.9070249999999993 Q 3.7926972656249998 1.8897749999999993 3.824197265625 1.8530249999999993 L 3.656947265625 1.6835249999999993 Q 3.552697265625 1.7217749999999994 3.552697265625 1.8095249999999994 Q 3.552697265625 1.8425249999999993 3.568822265625 1.8683999999999994 Q 3.584947265625 1.8942749999999993 3.613447265625 1.9092749999999994 Q 3.641947265625 1.9242749999999993 3.678697265625 1.9242749999999993 Q 3.722947265625 1.9242749999999993 3.757822265625 1.9070249999999993 M 4.5666829833984375 1.6962749999999993 Q 4.522432983398438 1.7375249999999993 4.433932983398438 1.7375249999999993 L 4.328182983398437 1.7375249999999993 L 4.328182983398437 1.9610249999999994 L 4.275682983398437 1.9610249999999994 L 4.275682983398437 1.4367749999999995 L 4.433932983398438 1.4367749999999995 Q 4.5216829833984375 1.4367749999999995 4.5663079833984375 1.4780249999999993 Q 4.610932983398437 1.5192749999999993 4.610932983398437 1.5875249999999994 Q 4.610932983398437 1.6550249999999993 4.5666829833984375 1.6962749999999993 M 4.556932983398437 1.5875249999999994 Q 4.556932983398437 1.5350249999999994 4.527682983398438 1.5080249999999993 Q 4.498432983398438 1.4810249999999994 4.433932983398438 1.4810249999999994 L 4.328182983398437 1.4810249999999994 L 4.328182983398437 1.6925249999999994 L 4.433932983398438 1.6925249999999994 Q 4.556932983398437 1.6925249999999994 4.556932983398437 1.5875249999999994 M 4.708452392578125 1.5601499999999993 Q 4.742202392578125 1.4990249999999994 4.800702392578125 1.4648999999999994 Q 4.859202392578125 1.4307749999999992 4.931202392578125 1.4307749999999992 Q 5.018952392578125 1.4307749999999992 5.081577392578125 1.4723999999999993 Q 5.144202392578125 1.5140249999999993 5.172702392578125 1.5897749999999993 L 5.111202392578125 1.5897749999999993 Q 5.088702392578125 1.5365249999999993 5.042577392578125 1.5065249999999994 Q 4.996452392578125 1.4765249999999994 4.931202392578125 1.4765249999999994 Q 4.873452392578125 1.4765249999999994 4.827327392578125 1.5035249999999993 Q 4.781202392578125 1.5305249999999995 4.754952392578125 1.5811499999999994 Q 4.728702392578125 1.6317749999999993 4.728702392578125 1.6985249999999994 Q 4.728702392578125 1.7652749999999993 4.754952392578125 1.8155249999999994 Q 4.781202392578125 1.8657749999999993 4.827327392578125 1.8927749999999994 Q 4.873452392578125 1.9197749999999993 4.931202392578125 1.9197749999999993 Q 4.996452392578125 1.9197749999999993 5.042577392578125 1.8901499999999993 Q 5.088702392578125 1.8605249999999993 5.111202392578125 1.8080249999999993 L 5.172702392578125 1.8080249999999993 Q 5.144202392578125 1.8830249999999993 5.081202392578125 1.9242749999999993 Q 5.018202392578125 1.9655249999999993 4.931202392578125 1.9655249999999993 Q 4.859202392578125 1.9655249999999993 4.800702392578125 1.9313999999999993 Q 4.742202392578125 1.8972749999999994 4.708452392578125 1.8365249999999993 Q 4.674702392578125 1.7757749999999994 4.674702392578125 1.6985249999999994 Q 4.674702392578125 1.6212749999999994 4.708452392578125 1.5601499999999993" fill="#ff0000" fill-rule="nonzero"></path></g><g clip-path="url(#SvgjsClipPath1001)"><g clip-path="url(#SvgjsClipPath1000ea5f9bfa-6b03-4422-a9ed-f38e7fce8cb7)"><path d=" M -0.5377087453336764 2.0090802592641523 C -0.46168362718639 2.008225963860758 -0.4002615748352438 1.946803911509613 -0.3994072794318506 1.870778793362328 L -0.3994072794318506 1.6350735807610706 L -1.7579228216332152 1.6350735807610706 C -1.9368622260659358 1.633994953449401 -2.081655065668119 1.4892021138472165 -2.0827336929797884 1.3102627094144943 L -2.0827336929797884 0.8870602237549093 L -0.9609112309932641 0.8870602237549093 L -0.9609112309932641 0.6511574376309371 C -0.9615553843402955 0.5750440608711175 -1.0230993201352718 0.5135001250761382 -1.0992126968950902 0.5128559717291098 L -2.4567403714828706 0.5128559717291098 L -2.4567403714828706 1.3098675623690623 C -2.4555471842040246 1.6953185218884275 -2.1433737811525204 2.007491924939907 -1.7579228216331844 2.008685112218721 Z" fill="#5a5a5a" transform="matrix(1,0,0,1,0,0)" fill-rule="evenodd"></path></g><g clip-path="url(#SvgjsClipPath1000ea5f9bfa-6b03-4422-a9ed-f38e7fce8cb7)"><path d=" M -2.3188340526264795 -0.046869818127851445 C -2.3948591707737674 -0.046015522724459586 -2.456281223124914 0.015406529626685178 -2.457135518528307 0.091431647773973 L -2.457135518528307 0.32851987503424973 L -1.0990151233723742 0.32851987503424973 C -0.9200437654712774 0.32970619544213786 -0.7752817419672622 0.4745562737049792 -0.7742042520258008 0.6535283199035347 L -0.7742042520258008 1.0765332320404108 L -1.8956315669668917 1.0765332320404108 L -1.8956315669668917 1.3126335916870975 C -1.8948820626014695 1.3887027644008607 -1.8333992737788276 1.4501855532235026 -1.7573301010650644 1.4509350575889248 L -0.40059272056815187 1.4509350575889248 L -0.40059272056815187 0.6511574376309371 C -0.402216291487941 0.26632214060720794 -0.7137846793032143 -0.045246247208063896 -1.0986199763269422 -0.04686981812784852 Z" fill="#ff0000" transform="matrix(1,0,0,1,0,0)" fill-rule="evenodd"></path></g></g></g><defs><clipPath id="SvgjsClipPath1001"><path d=" M -2.4567403714828706 -0.047857685741435674 h 2.0567403714828707 v 2.0567403714828707 h -2.0567403714828707 Z"></path></clipPath><clipPath id="SvgjsClipPath1000ea5f9bfa-6b03-4422-a9ed-f38e7fce8cb7"><path d=" M -2.4567403714828706 -0.047857685741435674 L -0.3999999999999999 -0.047857685741435674 L -0.3999999999999999 2.008882685741435 L -2.4567403714828706 2.008882685741435 Z"></path></clipPath></defs></svg>