<svg xmlns="http://www.w3.org/2000/svg" version="1.1" xmlns:xlink="http://www.w3.org/1999/xlink" xmlns:svgjs="http://svgjs.dev/svgjs" viewBox="0 0 7.9190384938220015 2.4992061044802822"><g transform="matrix(1,0,0,1,0.358313631676626,0.607513631676626)"><g><path d=" M 0.757 0.39999999999999997 L 0.559 0.39999999999999997 L 0.559 0.44099999999999995 L 0.671 0.44099999999999995 L 0.671 0.622 Q 0.626 0.651 0.579 0.6649999999999999 Q 0.532 0.6789999999999999 0.47200000000000003 0.6789999999999999 Q 0.393 0.6789999999999999 0.334 0.6549999999999999 Q 0.275 0.631 0.23600000000000002 0.5885 Q 0.197 0.5459999999999999 0.1775 0.48749999999999993 Q 0.158 0.42899999999999994 0.158 0.359 Q 0.158 0.29 0.1765 0.23199999999999998 Q 0.195 0.17399999999999993 0.232 0.132 Q 0.269 0.08999999999999997 0.3225 0.06699999999999995 Q 0.376 0.04399999999999993 0.447 0.04399999999999993 Q 0.494 0.04399999999999993 0.535 0.05399999999999994 Q 0.5760000000000001 0.06399999999999995 0.608 0.07999999999999996 Q 0.64 0.09599999999999997 0.6605 0.11649999999999994 Q 0.681 0.1369999999999999 0.687 0.15799999999999992 L 0.759 0.15799999999999992 Q 0.75 0.1359999999999999 0.7285 0.10849999999999993 Q 0.707 0.08099999999999996 0.67 0.05699999999999994 Q 0.633 0.03299999999999992 0.5785 0.01649999999999996 Q 0.524 0 0.45 0 Q 0.365 0 0.2935 0.02399999999999991 Q 0.222 0.04799999999999993 0.17 0.09299999999999997 Q 0.11800000000000001 0.1379999999999999 0.089 0.2034999999999999 Q 0.06 0.26899999999999996 0.06 0.352 Q 0.06 0.423 0.0825 0.48949999999999994 Q 0.105 0.5559999999999999 0.1515 0.6084999999999999 Q 0.198 0.6609999999999999 0.27 0.6925 Q 0.342 0.724 0.442 0.724 Q 0.517 0.724 0.5750000000000001 0.7075 Q 0.633 0.691 0.671 0.6709999999999999 L 0.671 0.712 L 0.757 0.712 L 0.757 0.39999999999999997 M 1.3250166015625 0.506 L 1.4210166015625 0.712 L 1.5180166015625 0.712 L 1.1920166015625 0.0119999999999999 L 1.1420166015625 0.0119999999999999 L 0.8460166015625 0.712 L 0.8920166015625 0.712 L 0.9800166015625 0.506 L 1.3250166015625 0.506 M 1.3040166015625 0.46099999999999997 L 0.9990166015624999 0.46099999999999997 L 1.1430166015625 0.124 L 1.1470166015625 0.124 L 1.3040166015625 0.46099999999999997 M 1.73501123046875 0.0119999999999999 L 1.6670112304687499 0.0119999999999999 L 1.6670112304687499 0.712 L 1.71101123046875 0.712 L 1.71101123046875 0.1409999999999999 L 1.71501123046875 0.1409999999999999 L 2.02401123046875 0.724 L 2.04201123046875 0.724 L 2.35801123046875 0.1449999999999999 L 2.36201123046875 0.1449999999999999 L 2.36201123046875 0.712 L 2.45301123046875 0.712 L 2.45301123046875 0.0119999999999999 L 2.38401123046875 0.0119999999999999 L 2.06001123046875 0.613 L 2.05601123046875 0.613 L 1.73501123046875 0.0119999999999999 M 2.69201220703125 0.0119999999999999 L 2.69201220703125 0.712 L 3.14401220703125 0.712 L 3.14401220703125 0.6569999999999999 L 2.7830122070312497 0.6569999999999999 L 2.7830122070312497 0.36399999999999993 L 3.09301220703125 0.36399999999999993 L 3.09301220703125 0.31799999999999995 L 2.7830122070312497 0.31799999999999995 L 2.7830122070312497 0.06699999999999995 L 3.14401220703125 0.06699999999999995 L 3.14401220703125 0.0119999999999999 L 2.69201220703125 0.0119999999999999" fill="#5a5a5a" fill-rule="nonzero"></path></g><g><path d=" M 4.620401953125 0.5349999999999999 Q 4.622401953124999 0.578 4.6429019531249995 0.613 Q 4.663401953125 0.6479999999999999 4.698901953125 0.6725 Q 4.7344019531249995 0.697 4.7824019531249995 0.7105 Q 4.8304019531249995 0.724 4.887401953125 0.724 Q 4.945401953125 0.724 4.991901953125 0.71 Q 5.038401953125 0.696 5.071401953124999 0.6699999999999999 Q 5.104401953125 0.6439999999999999 5.122401953124999 0.607 Q 5.140401953125 0.57 5.140401953125 0.5249999999999999 Q 5.140401953125 0.46299999999999997 5.1094019531249995 0.4235 Q 5.078401953125 0.38399999999999995 5.031901953125 0.3575 Q 4.985401953125 0.33099999999999996 4.930901953125 0.31299999999999994 Q 4.876401953125 0.295 4.829901953125 0.27499999999999997 Q 4.783401953125 0.25499999999999995 4.752401953124999 0.22899999999999998 Q 4.7214019531249996 0.20299999999999996 4.7214019531249996 0.15999999999999992 Q 4.7214019531249996 0.1359999999999999 4.731901953125 0.11499999999999999 Q 4.7424019531249995 0.09399999999999997 4.762901953125 0.0784999999999999 Q 4.783401953125 0.06299999999999994 4.813401953125 0.05349999999999999 Q 4.843401953124999 0.04399999999999993 4.882401953125 0.04399999999999993 Q 4.9474019531249995 0.04399999999999993 4.992901953125 0.07150000000000001 Q 5.038401953125 0.09899999999999998 5.046401953125 0.15799999999999992 L 5.114401953124999 0.15799999999999992 Q 5.108401953125 0.121 5.087401953124999 0.09149999999999991 Q 5.066401953124999 0.061999999999999944 5.034401953124999 0.04149999999999998 Q 5.002401953124999 0.020999999999999908 4.9619019531249995 0.010499999999999954 Q 4.921401953125 0 4.877401953124999 0 Q 4.831401953125 0 4.789901953125 0.0119999999999999 Q 4.748401953125 0.02399999999999991 4.716901953124999 0.04699999999999993 Q 4.685401953125 0.06999999999999995 4.666901953125 0.10499999999999998 Q 4.648401953125 0.1399999999999999 4.648401953125 0.18499999999999994 Q 4.648401953125 0.24399999999999994 4.678401953124999 0.27999999999999997 Q 4.708401953125 0.31599999999999995 4.753901953124999 0.33999999999999997 Q 4.799401953125 0.36399999999999993 4.852401953125 0.38099999999999995 Q 4.905401953125 0.39799999999999996 4.950901953124999 0.4195 Q 4.996401953125 0.44099999999999995 5.026401953124999 0.472 Q 5.0564019531249995 0.503 5.0564019531249995 0.5549999999999999 Q 5.0564019531249995 0.62 5.008901953124999 0.6499999999999999 Q 4.961401953125 0.6799999999999999 4.882401953125 0.6799999999999999 Q 4.819401953124999 0.6799999999999999 4.781401953125 0.6635 Q 4.743401953125 0.647 4.723401953124999 0.624 Q 4.703401953125 0.601 4.696401953125 0.5765 Q 4.6894019531249995 0.5519999999999999 4.688401953125 0.5349999999999999 L 4.620401953125 0.5349999999999999 M 5.586401953125 0.712 L 5.586401953125 0.06699999999999995 L 5.854401953125 0.06699999999999995 L 5.854401953125 0.0119999999999999 L 5.227401953124999 0.0119999999999999 L 5.227401953124999 0.06699999999999995 L 5.495401953125 0.06699999999999995 L 5.495401953125 0.712 L 5.586401953125 0.712 M 6.262399023437499 0.506 L 6.358399023437499 0.712 L 6.455399023437499 0.712 L 6.129399023437499 0.0119999999999999 L 6.079399023437499 0.0119999999999999 L 5.783399023437499 0.712 L 5.829399023437499 0.712 L 5.917399023437499 0.506 L 6.262399023437499 0.506 M 6.2413990234374985 0.46099999999999997 L 5.936399023437499 0.46099999999999997 L 6.080399023437499 0.124 L 6.084399023437499 0.124 L 6.2413990234374985 0.46099999999999997 M 6.604393652343749 0.0119999999999999 L 6.604393652343749 0.712 L 6.695393652343749 0.712 L 6.695393652343749 0.40299999999999997 L 6.7393936523437485 0.40299999999999997 Q 6.767393652343749 0.40299999999999997 6.7858936523437485 0.408 Q 6.804393652343749 0.413 6.819393652343749 0.42499999999999993 Q 6.834393652343748 0.43699999999999994 6.847393652343749 0.45599999999999996 Q 6.860393652343749 0.475 6.878393652343749 0.503 L 6.9573936523437485 0.62 Q 6.972393652343749 0.643 6.986893652343749 0.6619999999999999 Q 7.001393652343749 0.6809999999999999 7.0183936523437485 0.6945 Q 7.035393652343749 0.708 7.056893652343748 0.716 Q 7.078393652343749 0.724 7.108393652343748 0.724 Q 7.130393652343749 0.724 7.144393652343749 0.722 Q 7.158393652343749 0.72 7.172393652343748 0.712 L 7.172393652343748 0.6749999999999999 Q 7.1673936523437485 0.6759999999999999 7.162393652343749 0.6765 Q 7.157393652343749 0.6769999999999999 7.152393652343749 0.6769999999999999 Q 7.131393652343749 0.6769999999999999 7.115393652343749 0.6709999999999999 Q 7.099393652343749 0.6649999999999999 7.085393652343749 0.6535 Q 7.071393652343748 0.6419999999999999 7.0583936523437485 0.6255 Q 7.045393652343749 0.609 7.031393652343748 0.588 Q 6.9893936523437485 0.5269999999999999 6.966393652343749 0.49049999999999994 Q 6.943393652343748 0.45399999999999996 6.929893652343749 0.43399999999999994 Q 6.916393652343749 0.414 6.907893652343748 0.40499999999999997 Q 6.899393652343749 0.39599999999999996 6.887393652343748 0.38999999999999996 L 6.877393652343748 0.38499999999999995 L 6.877393652343748 0.38099999999999995 Q 6.9253936523437485 0.37799999999999995 6.959893652343749 0.36 Q 6.994393652343748 0.34199999999999997 7.016393652343749 0.31499999999999995 Q 7.038393652343749 0.288 7.048393652343749 0.25649999999999995 Q 7.0583936523437485 0.22499999999999998 7.0583936523437485 0.19499999999999995 Q 7.0583936523437485 0.16799999999999993 7.047893652343749 0.1359999999999999 Q 7.037393652343749 0.10399999999999998 7.0118936523437485 0.0764999999999999 Q 6.986393652343748 0.04899999999999993 6.942393652343749 0.03049999999999997 Q 6.898393652343748 0.0119999999999999 6.831393652343749 0.0119999999999999 L 6.604393652343749 0.0119999999999999 M 6.695393652343749 0.05599999999999994 L 6.796393652343749 0.05599999999999994 Q 6.834393652343748 0.05599999999999994 6.864893652343748 0.06699999999999995 Q 6.895393652343749 0.07799999999999996 6.9173936523437485 0.09749999999999992 Q 6.939393652343749 0.11699999999999999 6.950893652343749 0.1439999999999999 Q 6.962393652343748 0.17099999999999993 6.962393652343748 0.20299999999999996 Q 6.962393652343748 0.22999999999999998 6.951893652343749 0.25749999999999995 Q 6.9413936523437485 0.285 6.920393652343749 0.30749999999999994 Q 6.899393652343749 0.32999999999999996 6.868893652343749 0.344 Q 6.838393652343749 0.358 6.798393652343749 0.358 L 6.695393652343749 0.358 L 6.695393652343749 0.05599999999999994" fill="#5a5a5a" fill-rule="nonzero"></path></g><g><path d=" M 2.1047224609375 1.4503788411270302 L 1.9457224609374997 1.4503788411270302 L 1.9152224609374997 1.5333788411270302 L 1.8782224609374998 1.5333788411270302 L 2.0057224609374997 1.1883788411270302 L 2.0452224609374996 1.1883788411270302 L 2.1722224609375 1.5333788411270302 L 2.1352224609375 1.5333788411270302 L 2.1047224609375 1.4503788411270302 M 2.0942224609375 1.42137884112703 L 2.0252224609374996 1.2323788411270302 L 1.9562224609374999 1.42137884112703 L 2.0942224609375 1.42137884112703 M 2.49171123046875 1.5333788411270302 L 2.4567112304687497 1.5333788411270302 L 2.26321123046875 1.2393788411270301 L 2.26321123046875 1.5333788411270302 L 2.22821123046875 1.5333788411270302 L 2.22821123046875 1.1838788411270302 L 2.26321123046875 1.1838788411270302 L 2.4567112304687497 1.47737884112703 L 2.4567112304687497 1.1838788411270302 L 2.49171123046875 1.1838788411270302 L 2.49171123046875 1.5333788411270302 M 2.7741982910156247 1.2048788411270301 Q 2.8156982910156247 1.22587884112703 2.8376982910156245 1.2653788411270301 Q 2.859698291015625 1.3048788411270302 2.859698291015625 1.3593788411270302 Q 2.859698291015625 1.41337884112703 2.8376982910156245 1.45262884112703 Q 2.8156982910156247 1.49187884112703 2.7741982910156247 1.51262884112703 Q 2.732698291015625 1.5333788411270302 2.6746982910156247 1.5333788411270302 L 2.571198291015625 1.5333788411270302 L 2.571198291015625 1.1838788411270302 L 2.6746982910156247 1.1838788411270302 Q 2.732698291015625 1.1838788411270302 2.7741982910156247 1.2048788411270301 M 2.785948291015625 1.4661288411270301 Q 2.824198291015625 1.4278788411270302 2.824198291015625 1.3593788411270302 Q 2.824198291015625 1.2903788411270303 2.785948291015625 1.2516288411270302 Q 2.7476982910156247 1.2128788411270301 2.6746982910156247 1.2128788411270301 L 2.606198291015625 1.2128788411270301 L 2.606198291015625 1.5043788411270302 L 2.6746982910156247 1.5043788411270302 Q 2.7476982910156247 1.5043788411270302 2.785948291015625 1.4661288411270301 M 3.1101951171874997 1.5333788411270302 L 3.0236951171874997 1.3873788411270302 L 2.9591951171875 1.3873788411270302 L 2.9591951171875 1.5333788411270302 L 2.9241951171875 1.5333788411270302 L 2.9241951171875 1.1838788411270302 L 3.0291951171875 1.1838788411270302 Q 3.0876951171875 1.1838788411270302 3.1179451171875 1.2118788411270303 Q 3.1481951171875 1.2398788411270303 3.1481951171875 1.2853788411270302 Q 3.1481951171875 1.3233788411270302 3.1264451171874996 1.3501288411270302 Q 3.1046951171874997 1.37687884112703 3.0621951171874997 1.38487884112703 L 3.1521951171874996 1.5333788411270302 L 3.1101951171874997 1.5333788411270302 M 2.9591951171875 1.35887884112703 L 3.0296951171875 1.35887884112703 Q 3.0706951171875 1.35887884112703 3.0914451171875 1.33887884112703 Q 3.1121951171875 1.3188788411270302 3.1121951171875 1.2853788411270302 Q 3.1121951171875 1.2508788411270302 3.0921951171875 1.2321288411270301 Q 3.0721951171875 1.21337884112703 3.0291951171875 1.21337884112703 L 2.9591951171875 1.21337884112703 L 2.9591951171875 1.35887884112703 M 3.2866826660156248 1.5141288411270302 Q 3.247182666015625 1.4913788411270301 3.2244326660156246 1.45062884112703 Q 3.201682666015625 1.4098788411270302 3.201682666015625 1.3583788411270301 Q 3.201682666015625 1.3068788411270302 3.2244326660156246 1.2661288411270302 Q 3.247182666015625 1.22537884112703 3.2866826660156248 1.20262884112703 Q 3.3261826660156246 1.1798788411270302 3.374682666015625 1.1798788411270302 Q 3.4236826660156248 1.1798788411270302 3.4631826660156246 1.20262884112703 Q 3.502682666015625 1.22537884112703 3.525182666015625 1.2661288411270302 Q 3.547682666015625 1.3068788411270302 3.547682666015625 1.3583788411270301 Q 3.547682666015625 1.4098788411270302 3.525182666015625 1.45062884112703 Q 3.502682666015625 1.4913788411270301 3.4631826660156246 1.5141288411270302 Q 3.4236826660156248 1.5368788411270302 3.374682666015625 1.5368788411270302 Q 3.3261826660156246 1.5368788411270302 3.2866826660156248 1.5141288411270302 M 3.4446826660156247 1.4883788411270302 Q 3.475682666015625 1.4703788411270302 3.4936826660156246 1.43662884112703 Q 3.511682666015625 1.40287884112703 3.511682666015625 1.3583788411270301 Q 3.511682666015625 1.3138788411270301 3.4936826660156246 1.28037884112703 Q 3.475682666015625 1.2468788411270302 3.4446826660156247 1.2288788411270302 Q 3.413682666015625 1.2108788411270301 3.374682666015625 1.2108788411270301 Q 3.3356826660156247 1.2108788411270301 3.3046826660156245 1.2288788411270302 Q 3.273682666015625 1.2468788411270302 3.2556826660156246 1.28037884112703 Q 3.237682666015625 1.3138788411270301 3.237682666015625 1.3583788411270301 Q 3.237682666015625 1.40287884112703 3.2556826660156246 1.43662884112703 Q 3.273682666015625 1.4703788411270302 3.3046826660156245 1.4883788411270302 Q 3.3356826660156247 1.5063788411270302 3.374682666015625 1.5063788411270302 Q 3.413682666015625 1.5063788411270302 3.4446826660156247 1.4883788411270302 M 3.6466951171875 1.1838788411270302 L 3.6466951171875 1.5333788411270302 L 3.6116951171875 1.5333788411270302 L 3.6116951171875 1.1838788411270302 L 3.6466951171875 1.1838788411270302 M 3.9291970703124997 1.2048788411270301 Q 3.9706970703124997 1.22587884112703 3.9926970703124995 1.2653788411270301 Q 4.0146970703125 1.3048788411270302 4.0146970703125 1.3593788411270302 Q 4.0146970703125 1.41337884112703 3.9926970703124995 1.45262884112703 Q 3.9706970703124997 1.49187884112703 3.9291970703124997 1.51262884112703 Q 3.8876970703125 1.5333788411270302 3.8296970703124997 1.5333788411270302 L 3.7261970703125 1.5333788411270302 L 3.7261970703125 1.1838788411270302 L 3.8296970703124997 1.1838788411270302 Q 3.8876970703125 1.1838788411270302 3.9291970703124997 1.2048788411270301 M 3.9409470703125 1.4661288411270301 Q 3.9791970703125 1.4278788411270302 3.9791970703125 1.3593788411270302 Q 3.9791970703125 1.2903788411270303 3.9409470703125 1.2516288411270302 Q 3.9026970703124997 1.2128788411270301 3.8296970703124997 1.2128788411270301 L 3.7611970703125 1.2128788411270301 L 3.7611970703125 1.5043788411270302 L 3.8296970703124997 1.5043788411270302 Q 3.9026970703124997 1.5043788411270302 3.9409470703125 1.4661288411270301 M 4.4821873046875 1.5333788411270302 L 4.4346873046874995 1.4848788411270302 Q 4.409187304687499 1.5128788411270302 4.3801873046874995 1.5261288411270302 Q 4.3511873046875 1.5393788411270302 4.314687304687499 1.5393788411270302 Q 4.2796873046875 1.5393788411270302 4.2526873046875 1.5261288411270302 Q 4.2256873046875 1.5128788411270302 4.2106873046875 1.4888788411270302 Q 4.1956873046875 1.4648788411270302 4.1956873046875 1.43337884112703 Q 4.1956873046875 1.3963788411270301 4.2166873046874995 1.36887884112703 Q 4.237687304687499 1.3413788411270302 4.2781873046875 1.3258788411270301 Q 4.2606873046875 1.30637884112703 4.2526873046875 1.2896288411270302 Q 4.2446873046875 1.2728788411270302 4.2446873046875 1.2533788411270301 Q 4.2446873046875 1.2198788411270303 4.2686873046875 1.1991288411270302 Q 4.2926873046875 1.1783788411270302 4.3326873046875 1.1783788411270302 Q 4.3701873046875 1.1783788411270302 4.3936873046875 1.1998788411270302 Q 4.417187304687499 1.22137884112703 4.415687304687499 1.25587884112703 L 4.3806873046875 1.25587884112703 Q 4.3811873046875 1.2333788411270301 4.3669373046875 1.2203788411270302 Q 4.3526873046875 1.20737884112703 4.3311873046875 1.20737884112703 Q 4.308187304687499 1.20737884112703 4.2939373046875 1.2201288411270301 Q 4.2796873046875 1.2328788411270302 4.2796873046875 1.2528788411270302 Q 4.2796873046875 1.2688788411270302 4.2884373046875 1.28387884112703 Q 4.297187304687499 1.2988788411270302 4.3161873046874994 1.3193788411270302 L 4.4311873046875 1.4358788411270302 Q 4.438187304687499 1.4263788411270302 4.4501873046875 1.4058788411270302 L 4.4821873046875 1.35237884112703 L 4.5196873046874995 1.35237884112703 L 4.4816873046875 1.4178788411270302 Q 4.4681873046875 1.44137884112703 4.4546873046875 1.4598788411270303 L 4.5276873046874995 1.5333788411270302 L 4.4821873046875 1.5333788411270302 M 4.3674373046875 1.4973788411270301 Q 4.3906873046875 1.48587884112703 4.4116873046875 1.46137884112703 L 4.300187304687499 1.34837884112703 Q 4.2306873046875 1.3738788411270302 4.2306873046875 1.4323788411270302 Q 4.2306873046875 1.4543788411270302 4.2414373046875 1.4716288411270302 Q 4.252187304687499 1.4888788411270302 4.2711873046874995 1.4988788411270302 Q 4.2901873046875 1.5088788411270302 4.314687304687499 1.5088788411270302 Q 4.3441873046875 1.5088788411270302 4.3674373046875 1.4973788411270301 M 4.906677783203125 1.3568788411270303 Q 4.877177783203125 1.3843788411270301 4.818177783203125 1.3843788411270301 L 4.747677783203125 1.3843788411270301 L 4.747677783203125 1.5333788411270302 L 4.712677783203125 1.5333788411270302 L 4.712677783203125 1.1838788411270302 L 4.818177783203125 1.1838788411270302 Q 4.8766777832031245 1.1838788411270302 4.9064277832031244 1.21137884112703 Q 4.936177783203124 1.2388788411270302 4.936177783203124 1.28437884112703 Q 4.936177783203124 1.3293788411270302 4.906677783203125 1.3568788411270303 M 4.900177783203125 1.28437884112703 Q 4.900177783203125 1.2493788411270301 4.880677783203125 1.23137884112703 Q 4.861177783203125 1.21337884112703 4.818177783203125 1.21337884112703 L 4.747677783203125 1.21337884112703 L 4.747677783203125 1.35437884112703 L 4.818177783203125 1.35437884112703 Q 4.900177783203125 1.35437884112703 4.900177783203125 1.28437884112703 M 5.00119072265625 1.2661288411270302 Q 5.02369072265625 1.22537884112703 5.062690722656249 1.20262884112703 Q 5.10169072265625 1.1798788411270302 5.14969072265625 1.1798788411270302 Q 5.20819072265625 1.1798788411270302 5.24994072265625 1.2076288411270302 Q 5.2916907226562495 1.2353788411270301 5.31069072265625 1.28587884112703 L 5.26969072265625 1.28587884112703 Q 5.25469072265625 1.2503788411270302 5.22394072265625 1.2303788411270302 Q 5.19319072265625 1.2103788411270302 5.14969072265625 1.2103788411270302 Q 5.11119072265625 1.2103788411270302 5.08044072265625 1.2283788411270302 Q 5.0496907226562495 1.2463788411270302 5.0321907226562494 1.2801288411270302 Q 5.014690722656249 1.3138788411270301 5.014690722656249 1.3583788411270301 Q 5.014690722656249 1.40287884112703 5.0321907226562494 1.4363788411270302 Q 5.0496907226562495 1.4698788411270303 5.08044072265625 1.48787884112703 Q 5.11119072265625 1.50587884112703 5.14969072265625 1.50587884112703 Q 5.19319072265625 1.50587884112703 5.22394072265625 1.4861288411270301 Q 5.25469072265625 1.4663788411270302 5.26969072265625 1.43137884112703 L 5.31069072265625 1.43137884112703 Q 5.2916907226562495 1.48137884112703 5.24969072265625 1.5088788411270302 Q 5.20769072265625 1.53637884112703 5.14969072265625 1.53637884112703 Q 5.10169072265625 1.53637884112703 5.062690722656249 1.5136288411270302 Q 5.02369072265625 1.4908788411270302 5.00119072265625 1.4503788411270302 Q 4.97869072265625 1.4098788411270302 4.97869072265625 1.3583788411270301 Q 4.97869072265625 1.3068788411270302 5.00119072265625 1.2661288411270302" fill="#ff0000" fill-rule="nonzero"></path></g><g clip-path="url(#SvgjsClipPath1001)"><g clip-path="url(#SvgjsClipPath1000aec1c9ae-268c-4fa1-9ae6-3ad0e95143bf)"><path d=" M 4.4023598013478615 0.9613162728146015 C 4.447100889859257 0.9608135165257642 4.483248015279966 0.9246663911050558 4.483750771568803 0.8799253025936612 L 4.483750771568803 0.7412118347742552 L 3.684258898369957 0.7412118347742552 C 3.5789523374989756 0.7405770582530439 3.493741167686558 0.6553658884406252 3.4931063911653464 0.5500593275696433 L 3.4931063911653464 0.3010029586935643 L 4.153303432471781 0.3010029586935643 L 4.153303432471781 0.16217321805955837 C 4.152924345630264 0.11738018899888825 4.116705491311509 0.08116133468013187 4.07191246225084 0.0807822478386162 L 3.273001953125 0.0807822478386162 L 3.273001953125 0.5498267819404417 C 3.2737041486487226 0.7766662254944502 3.4574194548159833 0.9603815316616963 3.6842588983699747 0.9610837271854001 Z" fill="#5a5a5a" transform="matrix(1,0,0,1,0,0)" fill-rule="evenodd"></path></g><g clip-path="url(#SvgjsClipPath1000aec1c9ae-268c-4fa1-9ae6-3ad0e95143bf)"><path d=" M 3.354160377716738 -0.2486186359269934 C 3.3094192892053416 -0.2481158796381576 3.2732721637846325 -0.21196875421744923 3.272769407495796 -0.16722766570605296 L 3.272769407495796 -0.027700288184437122 L 4.072028735065441 -0.027700288184437122 C 4.1773541006813755 -0.0270021338419556 4.262547135095792 0.05824272115300716 4.2631812422700515 0.1635684918347714 L 4.2631812422700515 0.4125085878962539 L 3.603216746592819 0.4125085878962539 L 3.603216746592819 0.5514546013448597 C 3.6036578329333633 0.5962216161462248 3.6398407020123957 0.6324044852252576 3.684607716813761 0.6328455715658019 L 4.483053134681195 0.6328455715658019 L 4.483053134681195 0.16217321805955837 C 4.482097656649763 -0.06430390563383492 4.298738404388034 -0.24766315789556156 4.072261280694643 -0.24861863592699168 Z" fill="#ff0000" transform="matrix(1,0,0,1,0,0)" fill-rule="evenodd"></path></g></g></g><defs><clipPath id="SvgjsClipPath1001"><path d=" M 3.273001953125 -0.24919999999999998 h 1.2104 v 1.2104 h -1.2104 Z"></path></clipPath><clipPath id="SvgjsClipPath1000aec1c9ae-268c-4fa1-9ae6-3ad0e95143bf"><path d=" M 3.273001953125 -0.24919999999999998 L 4.483401953125 -0.24919999999999998 L 4.483401953125 0.9611999999999999 L 3.273001953125 0.9611999999999999 Z"></path></clipPath></defs></svg>